<svg viewBox="0 0 888 200" xmlns="http://www.w3.org/2000/svg">
  <path d="m264.414 150.347h359.172v41.035h-359.172z" fill="none" />
  <path
    d="m266.843 150.347h1.35l21.959 31.004h.09v-31.004h.9v32.129h-1.35l-21.959-31.004h-.09v31.004h-.9zm38.43 8.46c6.75 0 10.395 5.805 10.395 12.104 0 6.345-3.645 12.104-10.44 12.104-6.75 0-10.395-5.76-10.395-12.104 0-6.3 3.645-12.104 10.44-12.104zm0 23.308c6.165 0 9.495-5.354 9.495-11.204 0-5.76-3.33-11.205-9.495-11.205-6.255 0-9.54 5.445-9.54 11.205 0 5.85 3.285 11.204 9.54 11.204zm15.03.361h-.9v-23.129h.9v5.715h.09c.855-3.42 3.555-6.435 9.09-6.255v.899c-6.345-.314-9.18 4.636-9.18 9.675zm28.754-32.129h.9v32.129h-.9v-6.479h-.09c-1.17 4.05-4.545 7.02-9.27 7.02-6.12 0-9.855-5.085-9.855-12.06 0-6.479 3.465-12.149 9.855-12.149 4.905 0 8.189 2.835 9.27 7.02h.09zm-9.36 9.359c-6.345 0-8.955 5.896-8.955 11.25 0 5.939 2.97 11.159 8.955 11.159 5.939 0 9.359-5.175 9.359-11.159.001-7.154-3.734-11.25-9.359-11.25z"
    fill="#88c0d0"
  />
  <g fill="#2e3440">
    <path
      d="m365.032 150.347h25.469v2.61h-11.205v29.519h-3.06v-29.519h-11.205v-2.61zm24.615 21.284c.045 4.14 2.205 9.135 7.65 9.135 4.14 0 6.39-2.43 7.29-5.939h2.834c-1.215 5.265-4.274 8.324-10.124 8.324-7.38 0-10.485-5.67-10.485-12.284 0-6.12 3.105-12.284 10.485-12.284 7.47 0 10.439 6.524 10.215 13.049h-17.865zm15.03-2.385c-.136-4.274-2.79-8.279-7.38-8.279-4.635 0-7.2 4.05-7.65 8.279zm6.66-9.989h2.609v5.444h.09c1.44-3.734 4.59-5.939 8.775-5.76v2.835c-5.13-.27-8.64 3.51-8.64 8.325v12.374h-2.835v-23.218zm14.175 0h2.609v3.914h.135c1.485-2.789 3.915-4.589 7.605-4.589 3.06 0 5.805 1.484 6.659 4.544 1.396-3.06 4.32-4.544 7.38-4.544 5.085 0 7.694 2.654 7.694 8.145v15.749h-2.835v-15.614c0-3.825-1.439-5.895-5.489-5.895-4.905 0-6.3 4.05-6.3 8.369v13.14h-2.835v-15.749c.045-3.15-1.26-5.76-4.859-5.76-4.905 0-6.885 3.689-6.93 8.549v12.96h-2.835v-23.219zm37.529-8.91h2.835v4.545h-2.835zm0 8.91h2.835v23.219h-2.835zm8.235 0h2.835v4.005h.09c1.034-2.79 4.14-4.68 7.425-4.68 6.524 0 8.504 3.419 8.504 8.954v14.939h-2.835v-14.489c0-4.005-1.305-7.02-5.895-7.02-4.5 0-7.199 3.42-7.289 7.964v13.545h-2.835zm23.939 7.109c.271-5.444 4.095-7.784 9.405-7.784 4.095 0 8.549 1.26 8.549 7.469v12.33c0 1.08.54 1.71 1.665 1.71.315 0 .675-.09.9-.18v2.385c-.63.135-1.08.18-1.845.18-2.88 0-3.33-1.62-3.33-4.05h-.09c-1.98 3.015-4.005 4.725-8.46 4.725-4.274 0-7.785-2.115-7.785-6.795 0-6.524 6.346-6.749 12.465-7.47 2.34-.27 3.645-.585 3.645-3.149 0-3.825-2.744-4.77-6.074-4.77-3.51 0-6.12 1.619-6.21 5.399zm15.119 3.42h-.09c-.359.675-1.619.9-2.385 1.035-4.814.854-10.8.81-10.8 5.354 0 2.835 2.521 4.59 5.175 4.59 4.32 0 8.146-2.745 8.1-7.29zm8.551-19.439h2.835v32.129h-2.835zm9.945 32.129v-4.77h3.779v4.77zm10.574-16.11c.271-5.444 4.095-7.784 9.405-7.784 4.095 0 8.549 1.26 8.549 7.469v12.33c0 1.08.54 1.71 1.665 1.71.315 0 .675-.09.9-.18v2.385c-.63.135-1.08.18-1.845.18-2.88 0-3.33-1.62-3.33-4.05h-.09c-1.98 3.015-4.005 4.725-8.46 4.725-4.274 0-7.785-2.115-7.785-6.795 0-6.524 6.346-6.749 12.465-7.47 2.34-.27 3.645-.585 3.645-3.149 0-3.825-2.744-4.77-6.074-4.77-3.51 0-6.12 1.619-6.21 5.399zm15.119 3.42h-.09c-.359.675-1.619.9-2.385 1.035-4.814.854-10.8.81-10.8 5.354 0 2.835 2.521 4.59 5.175 4.59 4.32 0 8.146-2.745 8.1-7.29zm8.506-10.529h2.609v4.409h.09c1.306-3.149 4.545-5.084 8.28-5.084 7.064 0 10.439 5.714 10.439 12.284 0 6.569-3.375 12.284-10.439 12.284-3.465 0-6.84-1.755-8.055-5.085h-.09v13.005h-2.835v-31.813zm10.98 1.71c-6.255 0-8.145 4.635-8.145 9.899 0 4.814 2.114 9.899 8.145 9.899 5.399 0 7.604-5.085 7.604-9.899 0-4.815-2.205-9.899-7.604-9.899zm14.849-1.71h2.609v4.409h.09c1.306-3.149 4.545-5.084 8.28-5.084 7.064 0 10.439 5.714 10.439 12.284 0 6.569-3.375 12.284-10.439 12.284-3.465 0-6.84-1.755-8.055-5.085h-.09v13.005h-2.835v-31.813zm10.98 1.71c-6.255 0-8.145 4.635-8.145 9.899 0 4.814 2.114 9.899 8.145 9.899 5.399 0 7.604-5.085 7.604-9.899 0-4.815-2.205-9.899-7.604-9.899z"
    />
    <path d="m466.56 132.347-43.392-55.545v-15.412l48.091 62.172h25.844v-87.545h-43.465l-9.396-9.399h62.257v105.729z" />
    <path d="m421.439 26.618 43.394 55.541v15.41l-48.092-62.168h-25.843v87.545h43.463l9.401 9.401h-62.262v-105.729z" />
  </g>
</svg>
